<svg width="145" height="27" viewBox="0 0 145 27" fill="none" xmlns="http://www.w3.org/2000/svg">
<mask id="mask0_68_2850" style="mask-type:luminance" maskUnits="userSpaceOnUse" x="137" y="19" width="8" height="8">
<path d="M137.113 19.0955H145V26.9141H137.113V19.0955Z" fill="white"/>
</mask>
<g mask="url(#mask0_68_2850)">
<path d="M137.113 23.0042C137.106 22.2228 137.332 21.4569 137.761 20.8038C138.19 20.1508 138.804 19.6399 139.524 19.3362C140.244 19.0324 141.038 18.9494 141.805 19.0977C142.573 19.246 143.278 19.6189 143.833 20.1691C144.388 20.7193 144.767 21.422 144.922 22.188C145.077 22.9539 145.001 23.7487 144.704 24.4714C144.406 25.194 143.901 25.812 143.252 26.2469C142.602 26.6818 141.838 26.914 141.057 26.9141C140.016 26.9179 139.015 26.5083 138.276 25.7752C137.536 25.0421 137.118 24.0455 137.113 23.0042Z" fill="#7FC241"/>
</g>
<path d="M8.24319 26.5423H0.000976562V0.109802H8.81801C12.8894 0.109802 16.0763 1.20455 18.2907 3.36505C20.505 5.52555 21.6277 8.68655 21.6277 12.7673C21.6277 17.1587 20.446 20.589 18.1167 22.9628C15.7873 25.3367 12.4658 26.5423 8.24319 26.5423ZM6.8833 5.87769V20.6884H8.41719C9.27858 20.7591 10.1445 20.6247 10.9439 20.2964C11.7434 19.968 12.4538 19.455 13.0168 18.7993C13.9893 17.5471 14.4823 15.6031 14.4823 13.0231C14.6235 11.1245 14.1365 9.23209 13.0965 7.63737C12.5817 7.03472 11.9325 6.56148 11.2012 6.25583C10.4698 5.95017 9.67693 5.82064 8.88637 5.87769H6.8833Z" fill="white"/>
<mask id="mask1_68_2850" style="mask-type:luminance" maskUnits="userSpaceOnUse" x="0" y="0" width="145" height="27">
<path d="M0 26.9565H145V0H0V26.9565Z" fill="white"/>
</mask>
<g mask="url(#mask1_68_2850)">
<path d="M45.2803 26.536H51.9606V0.0020752H45.2803V26.536Z" fill="white"/>
<path d="M64.181 26.882C62.8831 26.9416 61.5873 26.7258 60.3788 26.2488C59.1703 25.7718 58.0765 25.0445 57.1692 24.1145C55.3571 22.0583 54.4211 19.3749 54.5612 16.6377C54.3971 13.9024 55.3148 11.2122 57.1163 9.14744C58.0606 8.22963 59.1856 7.51836 60.4197 7.05886C61.6537 6.59936 62.9699 6.40168 64.2845 6.4784C66.0428 6.44394 67.7795 6.8699 69.3222 7.71401C70.7734 8.53349 71.948 9.76613 72.6966 11.2551C73.5183 12.9293 73.9257 14.7764 73.8846 16.6408C74.0454 19.3907 73.1289 22.0952 71.3295 24.1808C70.3936 25.1067 69.2737 25.8256 68.0422 26.291C66.8107 26.7563 65.4952 26.9576 64.181 26.882ZM64.2141 11.5399C63.7617 11.5129 63.3113 11.6196 62.9191 11.8469C62.527 12.0742 62.2105 12.412 62.0091 12.818C61.4987 14.0238 61.2709 15.3304 61.3431 16.6377C61.2752 17.961 61.5027 19.2827 62.0091 20.5072C62.2059 20.9275 62.5244 21.2791 62.9232 21.5165C63.322 21.754 63.7829 21.8663 64.2462 21.8391C64.7042 21.8669 65.1599 21.7543 65.5522 21.5163C65.9446 21.2783 66.2549 20.9262 66.4419 20.5072C66.9311 19.2783 67.1501 17.9587 67.0841 16.6377C67.1537 15.3357 66.9315 14.0345 66.4336 12.8294C66.2347 12.4174 65.917 12.0744 65.5214 11.8446C65.1258 11.6148 64.6705 11.5087 64.2141 11.5399Z" fill="white"/>
<path d="M76.5352 26.535H83.2155V6.82642H76.5352V26.535Z" fill="white"/>
<path d="M76.5352 4.44322H83.2155V0.0020752H76.5352V4.44322Z" fill="white"/>
<path d="M96.7521 21.5076C97.8589 21.465 98.9504 21.2353 99.9804 20.8282V25.7882C99.1546 26.1571 98.2928 26.4393 97.4088 26.6303C96.4659 26.8111 95.5071 26.8958 94.5471 26.883C92.303 26.883 90.6856 26.323 89.6948 25.2031C88.5906 23.7216 88.063 21.8891 88.2106 20.0473V11.92H85.8699V6.82742H88.2106V1.79384L94.9407 0.630737V6.82742H99.2047V11.92H94.9407V19.5916C94.9407 20.8676 95.5441 21.5059 96.7511 21.5066" fill="white"/>
<path d="M112.214 21.5076C113.322 21.465 114.414 21.2353 115.445 20.8282V25.7882C114.619 26.1571 113.756 26.4393 112.872 26.6303C111.929 26.8111 110.97 26.8958 110.01 26.883C107.768 26.883 106.151 26.323 105.16 25.2031C104.054 23.7224 103.525 21.8895 103.673 20.0473V11.92H101.332V6.82742H103.673V1.71927L110.405 0.630737V6.82742H114.669V11.92H110.405V19.5916C110.405 20.8676 111.008 21.5069 112.214 21.5076Z" fill="white"/>
<path d="M127.17 26.8809C125.807 26.9623 124.442 26.7728 123.153 26.3234C121.864 25.8739 120.677 25.1736 119.66 24.2627C117.886 22.5309 116.987 20.0193 116.987 16.8097C116.987 13.4954 117.815 10.9185 119.463 9.14538C120.387 8.22561 121.495 7.51224 122.715 7.05234C123.935 6.59244 125.238 6.39647 126.539 6.47738C127.762 6.40074 128.989 6.56652 130.148 6.96519C131.307 7.36385 132.376 7.98756 133.293 8.80048C134.125 9.69419 134.766 10.7487 135.176 11.8991C135.585 13.0495 135.755 14.2716 135.675 15.4902V18.5144H123.736C123.735 19.007 123.841 19.4938 124.046 19.9416C124.251 20.3894 124.55 20.7876 124.923 21.1089C125.797 21.774 126.878 22.1066 127.974 22.0473C129.061 22.0557 130.146 21.9417 131.208 21.7076C131.945 21.532 132.667 21.2982 133.367 21.0084L134.394 25.4486C133.38 25.9783 132.293 26.3563 131.169 26.5702C129.848 26.793 128.51 26.897 127.17 26.8809ZM126.775 11.1049C126.045 11.0871 125.338 11.359 124.807 11.861C124.218 12.5129 123.887 13.3573 123.875 14.2359H129.614C129.635 13.4053 129.353 12.5956 128.821 11.9573C128.564 11.6737 128.247 11.4502 127.893 11.3029C127.54 11.1555 127.158 11.088 126.775 11.1049Z" fill="white"/>
<path d="M34.1919 26.8809C32.8292 26.9623 31.4639 26.7728 30.1749 26.3233C28.8859 25.8739 27.6987 25.1736 26.682 24.2627C24.9078 22.5309 24.0088 20.0214 24.0088 16.8097C24.0088 13.4954 24.8374 10.9185 26.4852 9.14537C27.4083 8.22558 28.516 7.51215 29.7353 7.05224C30.9545 6.59232 32.2575 6.39638 33.5581 6.47737C34.7816 6.40131 36.0082 6.56736 37.1675 6.96599C38.3267 7.36462 39.396 7.98802 40.314 8.80048C41.1462 9.69421 41.7868 10.7487 42.1965 11.8991C42.6061 13.0495 42.7762 14.2716 42.6962 15.4902V18.5144H30.7554C30.7548 19.007 30.8607 19.4938 31.0657 19.9416C31.2707 20.3894 31.5701 20.7876 31.9434 21.1089C32.8164 21.774 33.8977 22.1066 34.9936 22.0473C36.0818 22.0555 37.1674 21.9415 38.2302 21.7075C38.9669 21.5316 39.6886 21.2978 40.3886 21.0084L41.414 25.4485C40.3996 25.9783 39.3129 26.3563 38.1888 26.5702C36.8685 26.7931 35.5308 26.8971 34.1919 26.8809ZM33.7973 11.1049C33.0653 11.0866 32.3557 11.3584 31.8233 11.861C31.2337 12.5127 30.9023 13.3572 30.8911 14.2359H36.63C36.6498 13.4051 36.3671 12.5953 35.8346 11.9573C35.5783 11.6746 35.2629 11.4517 34.9108 11.3044C34.5588 11.1571 34.1786 11.089 33.7973 11.1049Z" fill="white"/>
</g>
</svg>
